PathFileType	4	(X/Y/Z)	/Users/itak/Documents/Research/Walk-IL/dataset/trc/00295_00010.trc
DataRate	CameraRate	NumFrames	NumMarkers	Units	OrigDataRate	OrigDataStartFrame	OrigNumFrames
100.000000	100.000000	4	54	mm	100.000000	247	661
Frame#	Time	RPSI			LPSI			L3			STRN			T10			C7			CLAV			RBAK			LBAK			LSHO			LUPA			LAEL			LAOL			LWTS			LWPS			LFRA			LHPS			RSHO			RUPA			RAEL			RAOL			RWTS			RWPS			RFRA			RIFD			RHTS			RHPS			RBHD			LFHD			RFHD			LBHD			LHIP			RHIP			RASI			LASI			LKNE			LTHI			LANK			LTIP			LTOE			LMT1			LMT5			LHEE			RKNE			RTHI			RANK			RTIP			RTOE			RMT1			RMT5			RHEE			LIFD			LHTS			*53			
		X1	Y1	Z1	X2	Y2	Z2	X3	Y3	Z3	X4	Y4	Z4	X5	Y5	Z5	X6	Y6	Z6	X7	Y7	Z7	X8	Y8	Z8	X9	Y9	Z9	X10	Y10	Z10	X11	Y11	Z11	X12	Y12	Z12	X13	Y13	Z13	X14	Y14	Z14	X15	Y15	Z15	X16	Y16	Z16	X17	Y17	Z17	X18	Y18	Z18	X19	Y19	Z19	X20	Y20	Z20	X21	Y21	Z21	X22	Y22	Z22	X23	Y23	Z23	X24	Y24	Z24	X25	Y25	Z25	X26	Y26	Z26	X27	Y27	Z27	X28	Y28	Z28	X29	Y29	Z29	X30	Y30	Z30	X31	Y31	Z31	X32	Y32	Z32	X33	Y33	Z33	X34	Y34	Z34	X35	Y35	Z35	X36	Y36	Z36	X37	Y37	Z37	X38	Y38	Z38	X39	Y39	Z39	X40	Y40	Z40	X41	Y41	Z41	X42	Y42	Z42	X43	Y43	Z43	X44	Y44	Z44	X45	Y45	Z45	X46	Y46	Z46	X47	Y47	Z47	X48	Y48	Z48	X49	Y49	Z49	X50	Y50	Z50	X51	Y51	Z51	X52	Y52	Z52	X53	Y53	Z53	X54	Y54	Z54	

248	2.47	-669.7886352539062	977.4332275390625	181.6769104003906	-843.7820434570312	974.7130126953125	157.0048065185547	-767.3579711914062	1048.838256835938	151.7225341796875	-711.7611694335938	1232.953125	-86.49696350097656	-779.7484130859375	1165.318603515625	168.6393890380859	-779.7942504882812	1410.254516601562	129.2358551025391	-726.990966796875	1333.98876953125	-24.0576171875	-726.7571411132812	1270.210083007812	197.4778594970703	-884.4699096679688	1377.878662109375	109.1418075561523	-904.1775512695312	1390.887329101562	7.77102518081665	-986.6741943359375	1278.199340820312	2.184466361999512	-1011.934265136719	1084.622802734375	-35.58131408691406	-975.8551025390625	1051.327026367188	37.54082107543945	-948.1505126953125	917.2849731445312	-181.0143737792969	-1016.396179199219	894.1367797851562	-169.5852966308594	-1019.830505371094	996.671875	-84.66832733154297	-1007.286071777344	816.0692138671875	-211.3953704833984	-609.1751098632812	1385.666015625	114.6110763549805	-551.77197265625	1329.811279296875	147.9781188964844	-540.1904296875	1074.51953125	225.0114288330078	-631.2217407226562	1066.66064453125	199.5333404541016	-533.6669921875	833.4451904296875	163.4956512451172	-501.9876098632812	842.6926879882812	242.5838775634766	-519.3756713867188	1005.727233886719	227.8624420166016	-548.78125	652.333740234375	197.0818328857422	-512.616455078125	715.8322143554688	175.4455108642578	-500.7738952636719	727.368896484375	244.0936279296875	-716.3277587890625	1556.419189453125	152.8785552978516	-715.23193359375	1618.673583984375	-51.30553436279297	-639.324951171875	1601.54541015625	0.2926407754421234	-836.415771484375	1573.070678710938	68.88304138183594	-930.3450927734375	928.4869995117188	77.11550903320312	-557.559326171875	927.5302734375	92.86087036132812	-616.5327758789062	936.3677978515625	-32.30038070678711	-868.1569213867188	936.845703125	-55.74786758422852	-950.293212890625	469.2269592285156	-27.36119842529297	-950.3460083007812	610.1224365234375	-6.302178382873535	-977.7568359375	212.7832336425781	338.2113952636719	-973.8013305664062	329.5648193359375	149.4947662353516	-869.4393310546875	40.74633026123047	276.1255187988281	-849.4749755859375	109.5824966430664	314.8341064453125	-960.1842041015625	94.31133270263672	303.4074096679688	-928.7252807617188	263.1925659179688	365.2370910644531	-662.7211303710938	470.3100280761719	-42.97553634643555	-577.3712768554688	721.499755859375	-0.7628728747367859	-775.1625366210938	44.86189270019531	-17.73748970031738	-697.9006958007812	350.0340881347656	-69.74057006835938	-811.7369995117188	45.26964950561523	-219.0745697021484	-854.5050659179688	41.19808959960938	-164.441162109375	-745.8560180664062	39.83991622924805	-121.5350875854492	-829.8484497070312	39.07410430908203	28.03057098388672	-939.1909790039062	753.7854614257812	-266.6450500488281	-958.4522094726562	839.8173828125	-248.3469390869141	nan	nan	nan	
249	2.48	-669.8478393554688	978.3805541992188	174.6039733886719	-843.55029296875	975.1655883789062	147.9873504638672	-766.3895263671875	1049.799682617188	143.5487670898438	-709.833740234375	1233.632934570312	-94.00617218017578	-778.6673583984375	1165.90234375	160.7696380615234	-778.3446655273438	1410.999755859375	121.4887084960938	-725.2022094726562	1334.470092773438	-31.65890884399414	-725.6153564453125	1270.9140625	190.3799438476562	-882.985107421875	1378.67529296875	101.0102081298828	-902.4971923828125	1391.609619140625	-0.5073833465576172	-984.8504028320312	1278.742553710938	-5.84000825881958	-1009.932067871094	1084.282836914062	-43.03005599975586	-974.2117309570312	1052.275268554688	30.85064125061035	-943.3943481445312	912.514892578125	-183.2001037597656	-1012.25634765625	890.4351196289062	-172.7682800292969	-1016.818481445312	995.1475830078125	-90.60161590576172	-1002.782348632812	810.8831176757812	-211.8416900634766	-607.6672973632812	1386.083129882812	107.6355972290039	-550.2694702148438	1329.843383789062	140.9463348388672	-538.4491577148438	1073.66162109375	215.8770141601562	-629.7967529296875	1066.384887695312	191.3248291015625	-532.9476318359375	833.8409423828125	149.7872467041016	-500.8052673339844	841.1598510742188	228.9143829345703	-517.9334106445312	1004.611450195312	217.5227203369141	-547.6144409179688	651.91552734375	178.6090545654297	-511.6664733886719	716.0686645507812	158.5527191162109	-499.6503295898438	725.7714233398438	227.5200958251953	-715.0216674804688	1556.831176757812	145.7925109863281	-712.5717163085938	1619.781127929688	-58.1583366394043	-637.00341796875	1602.520385742188	-6.10261869430542	-834.573974609375	1573.755126953125	61.02842330932617	-928.9203491210938	929.0404663085938	66.82504272460938	-556.4561157226562	928.4340209960938	87.16947174072266	-613.8422241210938	937.2197265625	-38.71951293945312	-865.1331787109375	937.84375	-65.15578460693359	-947.0746459960938	471.6400756835938	-50.33029556274414	-947.80224609375	612.112548828125	-24.62056732177734	-982.1890869140625	215.5279388427734	314.3704223632812	-974.2442016601562	331.5405883789062	124.990119934082	-873.0784912109375	43.33329772949219	252.3509674072266	-853.7008056640625	111.8357315063477	292.5057373046875	-964.1996459960938	97.73228454589844	278.309814453125	-933.4697265625	265.3116455078125	342.9612121582031	-661.9566650390625	470.0719299316406	-45.24999237060547	-576.1073608398438	721.65771484375	-5.384117603302002	-775.22021484375	44.88125610351562	-17.73970985412598	-697.4758911132812	349.7577819824219	-71.24028778076172	-811.8151245117188	45.21105575561523	-219.1170196533203	-854.533935546875	41.13819122314453	-164.4607391357422	-745.8743286132812	39.8377799987793	-121.5407485961914	-829.9529418945312	39.14702606201172	27.99878883361816	-933.681396484375	746.0951538085938	-263.0415344238281	-952.6416625976562	832.9234619140625	-248.153076171875	nan	nan	nan	
250	2.49	-670.08203125	979.2810668945312	167.767822265625	-843.4094848632812	975.7374267578125	138.8917846679688	-765.582763671875	1050.792602539062	135.5925903320312	-707.7672729492188	1234.321044921875	-101.4099731445312	-777.6233520507812	1166.44384765625	153.0016479492188	-776.9277954101562	1411.712890625	113.8372192382812	-723.3797607421875	1334.893798828125	-39.12210464477539	-724.51025390625	1271.587036132812	183.4178161621094	-881.5243530273438	1379.4326171875	92.90042877197266	-900.7772827148438	1392.26171875	-8.769536972045898	-982.9801635742188	1279.211547851562	-13.84207248687744	-1007.799926757812	1083.815185546875	-50.17720031738281	-972.3084106445312	1053.175048828125	24.4006233215332	-938.85791015625	907.6954345703125	-184.9071044921875	-1008.210693359375	886.620361328125	-175.3281402587891	-1013.768737792969	993.4954833984375	-96.10190582275391	-998.6268310546875	805.7396850585938	-211.7147521972656	-606.1973876953125	1386.467163085938	100.8501052856445	-548.8033447265625	1329.78076171875	134.0575561523438	-536.3783569335938	1072.641235351562	206.4616394042969	-628.07568359375	1065.900390625	183.0552215576172	-532.09716796875	834.1490478515625	135.7553863525391	-499.1261596679688	839.679443359375	214.6812896728516	-516.1065063476562	1003.385375976562	206.7735443115234	-546.0642700195312	651.5421752929688	160.3797912597656	-510.47607421875	716.3034057617188	141.4875793457031	-497.8922119140625	724.3670043945312	210.6007232666016	-713.6705932617188	1557.225830078125	138.7001342773438	-709.9176635742188	1620.776000976562	-65.04139709472656	-634.6796264648438	1603.384155273438	-12.54510688781738	-832.6949462890625	1574.428588867188	53.20404815673828	-927.4757080078125	929.797119140625	56.33010482788086	-555.3820190429688	929.2385864257812	81.85343933105469	-610.9630737304688	938.0834350585938	-44.745849609375	-861.8349609375	938.9177856445312	-74.55332946777344	-943.0863037109375	474.4169006347656	-73.09408569335938	-944.7866821289062	614.373291015625	-42.98564529418945	-986.259521484375	217.2236480712891	289.9139709472656	-974.1460571289062	333.2292175292969	100.27880859375	-877.2931518554688	45.53125381469727	226.0186767578125	-857.9971313476562	112.7829666137695	268.3060913085938	-968.3098754882812	100.5332717895508	251.3992309570312	-937.6849365234375	265.9137573242188	320.4217529296875	-661.2637329101562	469.8380737304688	-47.30392837524414	-574.8851928710938	721.7315063476562	-9.77610969543457	-775.28173828125	44.91435241699219	-17.74332618713379	-697.0780029296875	349.4974670410156	-72.54788970947266	-811.9087524414062	45.14423370361328	-219.1688842773438	-854.57666015625	41.06792831420898	-164.4824371337891	-745.9122924804688	39.84795761108398	-121.5480728149414	-830.0689697265625	39.22504425048828	27.96089363098145	-928.8858642578125	738.6326293945312	-259.0880126953125	-947.3296508789062	826.1188354492188	-247.4468994140625	nan	nan	nan	
251	2.5	-670.4742431640625	980.1505737304688	161.1619415283203	-843.3382568359375	976.3872680664062	129.7349395751953	-764.9230346679688	1051.826904296875	127.8075637817383	-705.5253295898438	1235.037841796875	-108.7029800415039	-776.608642578125	1166.957397460938	145.3137664794922	-775.5489501953125	1412.393432617188	106.2839279174805	-721.493408203125	1335.308227539062	-46.44241714477539	-723.4620971679688	1272.223510742188	176.5663909912109	-880.0882568359375	1380.155151367188	84.80333709716797	-899.000732421875	1392.8671875	-17.0229606628418	-981.0568237304688	1279.6396484375	-21.85157775878906	-1005.520446777344	1083.2783203125	-57.01945495605469	-970.1400146484375	1054.064086914062	18.19102478027344	-934.5648803710938	902.8742065429688	-186.1651611328125	-1004.302612304688	882.7388305664062	-177.2793884277344	-1010.689025878906	991.760009765625	-101.1661224365234	-994.8302001953125	800.6788330078125	-211.0288848876953	-604.77587890625	1386.832885742188	94.26581573486328	-547.3989868164062	1329.650268554688	127.329231262207	-533.9830932617188	1071.5107421875	196.7778015136719	-626.0528564453125	1065.244750976562	174.7321929931641	-531.1011352539062	834.4313354492188	121.4105072021484	-496.95703125	838.30810546875	199.8978576660156	-513.9020385742188	1002.10302734375	195.6294250488281	-544.1831665039062	651.2371826171875	142.3658599853516	-509.0706176757812	716.5833740234375	124.2527084350586	-495.5304565429688	723.1915283203125	193.3363037109375	-712.2928466796875	1557.63134765625	131.6080322265625	-707.246337890625	1621.646728515625	-71.95742797851562	-632.3427124023438	1604.1201171875	-19.02961158752441	-830.783447265625	1575.114379882812	45.39960861206055	-926.001220703125	930.7169799804688	45.65938568115234	-554.3511352539062	929.9361572265625	76.87120056152344	-607.8900146484375	938.9457397460938	-50.43559265136719	-858.2753295898438	940.0759887695312	-83.93977355957031	-938.33251953125	477.5145263671875	-95.50191497802734	-941.3018798828125	616.8753662109375	-61.30989456176758	-989.9715576171875	217.8633270263672	264.8662414550781	-973.4950561523438	334.5752868652344	75.43319702148438	-881.9132080078125	47.19537734985352	197.4475250244141	-862.3141479492188	112.4609603881836	242.4426574707031	-972.4205322265625	102.7011489868164	222.9053955078125	-941.4369506835938	265.0250244140625	297.5950012207031	-660.6033325195312	469.597412109375	-49.11762619018555	-573.7036743164062	721.7196044921875	-13.91396427154541	-775.3353881835938	44.96537780761719	-17.7482738494873	-696.6846923828125	349.2472534179688	-73.64167785644531	-812.0133666992188	45.07263565063477	-219.2288818359375	-854.6300048828125	40.99086761474609	-164.5045928955078	-745.9640502929688	39.86737442016602	-121.5560836791992	-830.18359375	39.30797958374023	27.92198371887207	-924.7763061523438	731.436767578125	-254.8261413574219	-942.51953125	819.447265625	-246.25927734375	nan	nan	nan	
